<svg xmlns="http://www.w3.org/2000/svg" width="478.221" height="316.105" viewBox="0 0 478.221 316.105">
  <g id="Grupo_1" data-name="Grupo 1" transform="translate(-240.889 -381.948)">
    <path id="Caminho_1" data-name="Caminho 1" d="M588.353,662.427q-19.834-3.1-38.14-5.282l4.7-9.4c-1.631-.544-8.7,4.894-8.7,4.894l5.981-27.187c-8.156,1.088-11.962,28.818-11.962,28.818l-9.244-9.244,4.55,10.466a842.7,842.7,0,0,0-96.659-4.868l4.022-8.045c-1.631-.544-8.7,4.894-8.7,4.894l5.981-27.187c-8.156,1.087-11.962,28.818-11.962,28.818l-9.244-9.244,4.819,11.085a542.6,542.6,0,0,0-55.474,4.467c4.014-12.5,18.03-24.524,18.03-24.524-10.777,3.353-16.384,8.815-19.286,13.879a218.345,218.345,0,0,1,11.674-75.594s-21.75,48.937-18.487,81.561l.414,5.8c-18.922,2.952-28.417,5.9-28.417,5.9Z" transform="translate(2.163 35.625)" fill="#88f9d4"/>
    <path id="Caminho_2" data-name="Caminho 2" d="M889.447,605.861a6.525,6.525,0,1,1,6.525-6.525A6.525,6.525,0,0,1,889.447,605.861Zm0-11.962a5.437,5.437,0,1,0,5.438,5.437A5.437,5.437,0,0,0,889.447,593.9Z" transform="translate(-249.085 24.841)" fill="#3f3d56"/>
    <path id="Caminho_3" data-name="Caminho 3" d="M981.743,730.094H971.009V719.36h10.734Zm-9.908-.826h9.083v-9.083h-9.083Z" transform="translate(-289.276 -32.897)" fill="#3f3d56"/>
    <path id="Caminho_4" data-name="Caminho 4" d="M316.25,727.451l-7.322-7.85,7.85-7.322,7.322,7.85Zm-6.155-7.809,6.2,6.642,6.642-6.2-6.2-6.642Z" transform="translate(12.803 -29.667)" fill="#3f3d56"/>
    <rect id="Ret창ngulo_2" data-name="Ret창ngulo 2" width="466.437" height="1.087" transform="translate(252.673 696.59)" fill="#3f3d56"/>
    <path id="Caminho_5" data-name="Caminho 5" d="M580.507,232.056v35.713a1.249,1.249,0,0,1-1.245,1.245h-.886V455.055a19.412,19.412,0,0,1-19.411,19.412H442.717a19.408,19.408,0,0,1-19.406-19.41V275.539h-.642a.88.88,0,0,1-.881-.875V254.338a.881.881,0,0,1,.881-.881h.641V245.8h-.647a.922.922,0,0,1-.919-.924V224.829a.921.921,0,0,1,.919-.919h.647V213.46h-.658a.815.815,0,0,1-.816-.816V201.7a.819.819,0,0,1,.816-.821h.658V178.731a19.407,19.407,0,0,1,19.405-19.406H558.964a19.412,19.412,0,0,1,19.412,19.406v52.08h.886A1.249,1.249,0,0,1,580.507,232.056Z" transform="translate(-38.67 222.623)" fill="#3f3d56"/>
    <rect id="Ret창ngulo_3" data-name="Ret창ngulo 3" width="21.654" height="4.397" rx="2.198" transform="translate(447.5 391.902)" fill="#e6e8ec"/>
    <circle id="Elipse_1" data-name="Elipse 1" cx="2.494" cy="2.494" r="2.494" transform="translate(472.428 391.606)" fill="#e6e8ec"/>
    <path id="Caminho_6" data-name="Caminho 6" d="M578.668,191.741v274.1a12.316,12.316,0,0,1-12.316,12.31H455.076a12.281,12.281,0,0,1-5.688-1.387,11.5,11.5,0,0,1-1.2-.707,12.326,12.326,0,0,1-5.432-10.217v-274.1a12.315,12.315,0,0,1,12.316-12.316h16.654v2.137A10.141,10.141,0,0,0,481.871,191.7h56.593A10.141,10.141,0,0,0,548.6,181.562v-2.137h17.748A12.312,12.312,0,0,1,578.668,191.741Z" transform="translate(-48.258 213.452)" fill="#9164fa"/>
    <path id="Caminho_7" data-name="Caminho 7" d="M578.668,612.155v39.237a12.316,12.316,0,0,1-12.316,12.31H455.076a12.282,12.282,0,0,1-5.687-1.387,11.507,11.507,0,0,1-1.2-.707,12.326,12.326,0,0,1-5.432-10.217v-39.22A101.664,101.664,0,0,1,578.668,612.155Z" transform="translate(-48.258 27.896)" fill="#fff" opacity="0.3"/>
    <path id="Caminho_8" data-name="Caminho 8" d="M577.613,691.906a12.185,12.185,0,0,1-5.7,1.4H460.638a12.28,12.28,0,0,1-5.688-1.387,66.424,66.424,0,0,1,122.665-.005Z" transform="translate(-53.82 -1.706)" fill="#fff" opacity="0.3"/>
    <path id="Caminho_9" data-name="Caminho 9" d="M573.716,706.672a7.375,7.375,0,0,1-3.448.846H502.932a7.432,7.432,0,0,1-3.442-.839,40.195,40.195,0,0,1,74.228,0Z" transform="translate(-74.142 -15.813)" fill="#fff" opacity="0.3"/>
    <path id="Caminho_10" data-name="Caminho 10" d="M538.811,358.67c-11.162,0-23.413-2.126-32.976-9.3-13.315-9.986-29.719-9.453-41.136-7.247a89.642,89.642,0,0,0-21.9,7.294l-.5-.964a90.781,90.781,0,0,1,22.167-7.392c11.641-2.253,28.382-2.791,42.023,7.44,25.556,19.167,71.316,1.952,71.775,1.777l.39,1.015a131.778,131.778,0,0,1-26.484,6.447A101.241,101.241,0,0,1,538.811,358.67Z" transform="translate(-48.047 140.319)" fill="#fff"/>
    <path id="Caminho_11" data-name="Caminho 11" d="M442.75,353.988s37.518-9.087,63.618,3.355,72.318-.092,72.318-.092" transform="translate(-48.253 135.267)" fill="#fff" opacity="0.3"/>
    <path id="Caminho_12" data-name="Caminho 12" d="M477.963,366.731a71.475,71.475,0,0,1-13.5-1.348A90.779,90.779,0,0,1,442.3,357.99l.5-.964a89.642,89.642,0,0,0,21.9,7.294c11.416,2.206,27.821,2.739,41.136-7.247,13.63-10.222,32.721-10.194,46.334-8.369a131.78,131.78,0,0,1,26.484,6.447l-.39,1.015c-.459-.176-46.219-17.391-71.775,1.777C497.542,364.653,487.263,366.731,477.963,366.731Z" transform="translate(-48.047 136.641)" fill="#fff" opacity="0.3"/>
    <path id="Caminho_13" data-name="Caminho 13" d="M478.186,361.893c-18.832,0-35.556-6.756-35.807-6.859l.414-1.006c.372.153,37.566,15.17,63.129.035,26-15.4,72.267-1.654,72.731-1.513l-.315,1.041c-.459-.139-46.269-13.746-71.861,1.408C497.742,360.17,487.694,361.893,478.186,361.893Z" transform="translate(-48.084 137.1)" fill="#fff" opacity="0.3"/>
    <path id="Caminho_14" data-name="Caminho 14" d="M442.76,354.6s37.513,12.442,63.612,0,72.3-1.176,72.3-1.176" transform="translate(-48.258 136.199)" fill="#fff" opacity="0.3"/>
    <path id="Caminho_15" data-name="Caminho 15" d="M710.519,420.725v15.852s1.268,17.754,8.243,26.631c0,0,11.413,16.169,13,12.681l-1.952-11.481-6.608-6.273-3.487-19.656-.951-17.754Z" transform="translate(-170.425 103.357)" fill="#ffb8b8"/>
    <path id="Caminho_16" data-name="Caminho 16" d="M671.144,524.941v11.73l-9.511,3.488V526.526Z" transform="translate(-60.986 142.439)" fill="#ffb8b8"/>
    <path id="Caminho_17" data-name="Caminho 17" d="M639.834,522.609l6.341,14.266-8.877,3.8-1.9-13.949Z" transform="translate(-49.015 143.503)" fill="#ffb8b8"/>
    <path id="Caminho_18" data-name="Caminho 18" d="M791.444,473.416s12.681,114.449,7.926,114.766-13.949,6.341-13.949,2.219-7.292-57.7-7.292-57.7l-6.975-27.582v38.044l7.292,43.116s-6.975,9.194-12.047,3.8l-10.779-42.165s-14.266-64.04-13.632-69.113C741.987,478.805,774.641,450.907,791.444,473.416Z" transform="translate(-184.773 83.32)" fill="#2f2e41"/>
    <path id="Caminho_19" data-name="Caminho 19" d="M824.306,704.423s2.536-5.39,8.243-1.9l4.755,5.707s12.26,10.154,3.561,12.329c-8.967,2.242-14.34-.143-14.34-.143a6.932,6.932,0,0,0-2.853-.951c-1.268,0-4.121-2.219-4.121-2.853s.951-11.868.951-11.868a2,2,0,0,1,2.219.317C823.672,706.009,824.306,704.423,824.306,704.423Z" transform="translate(-220.172 -24.679)" fill="#2f2e41"/>
    <path id="Caminho_20" data-name="Caminho 20" d="M788.31,701.881s6.024-4.755,8.877.634c0,0,1.8.634,2.008,0s1.8-.951,1.8,2.536,1.722,12.185.136,12.5-3.17,1.268-2.853,2.536-1.722,1.447-9.013,1.13-7.609-3.17-7.609-3.17,0-4.121,1.9-6.341S788.31,701.881,788.31,701.881Z" transform="translate(-202.88 -24.039)" fill="#2f2e41"/>
    <path id="Caminho_21" data-name="Caminho 21" d="M756.9,321.605s-1.585,11.73,8.56,15.852-22.509,17.754-25.68,9.828.634-10.462.634-10.462,3.17-3.17.317-11.73Z" transform="translate(-183.2 148.581)" fill="#ffb8b8"/>
    <circle id="Elipse_2" data-name="Elipse 2" cx="13.949" cy="13.949" r="13.949" transform="translate(549.605 450.53)" fill="#ffb8b8"/>
    <path id="Caminho_22" data-name="Caminho 22" d="M760.256,357.755s-9.511,5.073-18.7,1.268-8.877,12.681-8.877,12.681l4.755,12.364L770.4,380.9l-2.219-19.022Z" transform="translate(-180.533 132.088)" fill="#f2f2f2"/>
    <path id="Caminho_23" data-name="Caminho 23" d="M744.359,337.8a11.509,11.509,0,0,1,7.9,6.092l15.218,4.755,3.8,5.39-4.438,38.995s8.243,7.926,8.243,12.364,10.145,19.656,5.073,17.754-14.266-8.56-14.266-8.56-23.143.951-30.435,7.292-10.145,4.438-10.145,4.438-7.609-32.971-7.926-38.044-9.194-35.508-9.194-35.508l15.852-8.877,4.037-4.581,11.18,17.9L749.4,344.848S744.389,340.906,744.359,337.8Z" transform="translate(-169.361 141.19)" fill="#3f3d56"/>
    <path id="Caminho_24" data-name="Caminho 24" d="M824.98,412.562l1.9,10.145s8.56,31.7,7.292,42.482c0,0,.951,24.094-4.438,21.241s-2.536-20.29-2.536-20.29l-7.609-31.386-4.121-18.388Z" transform="translate(-218.309 107.081)" fill="#ffb8b8"/>
    <path id="Caminho_25" data-name="Caminho 25" d="M815.99,364.168l3.17,1.9s12.047,25.046,9.194,26.948-15.218,6.024-15.218,6.024Z" transform="translate(-217.245 129.161)" fill="#3f3d56"/>
    <path id="Caminho_26" data-name="Caminho 26" d="M554.216,205.877l-7.45-.159-1.743,3.012,2.219,30.752,11.413,2.536Z" transform="translate(-7.781 288.087)" fill="#3f3d56"/>
    <path id="Caminho_27" data-name="Caminho 27" d="M749.367,282.605l2.514-.914s-5.257-5.257-12.572-4.8l2.057-2.057s-5.029-1.829-9.6,2.971c-2.4,2.523-5.184,5.489-6.917,8.83h-2.693l1.124,2.248-3.933,2.248,4.037-.4a11.341,11.341,0,0,0,.382,5.821l.914,2.514s3.657-7.314,3.657-8.229v2.286s2.514-2.057,2.514-3.429l1.371,1.6.686-2.514,8.457,2.514L740,289.234l5.257.686-2.057-2.514s5.943,2.971,6.171,5.486a21.21,21.21,0,0,0,1.8,5.792l1.9-2.219S756,286.034,749.367,282.605Z" transform="translate(-174.453 170.077)" fill="#2f2e41"/>
    <ellipse id="Elipse_3" data-name="Elipse 3" cx="1.11" cy="2.853" rx="1.11" ry="2.853" transform="translate(574.175 461.785)" fill="#ffb8b8"/>
    <path id="Caminho_28" data-name="Caminho 28" d="M198.343,683.289c6.758,12.533,21.1,17.913,21.1,17.913s3.386-14.94-3.372-27.472-21.1-17.913-21.1-17.913S191.585,670.756,198.343,683.289Z" transform="translate(65.185 -3.905)" fill="#3f3d56"/>
    <path id="Caminho_29" data-name="Caminho 29" d="M187.533,694.446c12.2,7.34,16.9,21.92,16.9,21.92s-15.082,2.679-27.283-4.661-16.9-21.92-16.9-21.92S175.332,687.106,187.533,694.446Z" transform="translate(80.639 -19.186)" fill="#88f9d4"/>
    <path id="Caminho_30" data-name="Caminho 30" d="M442.76,349.375s37.513-19.575,63.612,0,72.3,1.85,72.3,1.85" transform="translate(-48.258 139.88)" fill="#fff" opacity="0.3"/>
    <circle id="Elipse_4" data-name="Elipse 4" cx="6" cy="6" r="6" transform="translate(456.639 676.623)" fill="#fff"/>
    <text id="Todo.app" transform="translate(414 545)" fill="#fff" font-size="36" font-family="BarlowCondensed-Medium, Barlow Condensed" font-weight="500" letter-spacing="-0.05em"><tspan x="0" y="0">todo</tspan><tspan y="0" fill="#494d4b">.app</tspan></text>
  </g>
</svg>
